<?xml version="1.0"?>
<svg width="64" height="64" xmlns="http://www.w3.org/2000/svg">
	<!-- Created with Method Draw - http://github.com/duopixel/Method-Draw/ -->

	<g>
		<title>background</title>
		<rect fill="#9e0000" id="canvas_background" height="66" width="66" y="-1" x="-1"/>
		<g display="none" overflow="visible" y="0" x="0" height="100%" width="100%" id="canvasGrid">
			<rect fill="url(#gridpattern)" stroke-width="0" y="0" x="0" height="100%" width="100%"/>
		</g>
	</g>
	<g>
		<title>Layer 1</title>
		<g stroke="null" id="svg_22">
			<g stroke="null" transform="matrix(0.619819 0 0 0.619819 1.66412 2.44291)" id="svg_17">
				<g stroke="null" id="svg_18">
					<g stroke="null" id="svg_20">
						<path fill="#ffffff" id="svg_21" d="m77.943169,18.686691l-58.000004,0c-1.657,0 -3,1.343002 -3,3l0,43c0,1.656998 1.343,2.999001 2.999001,3l4.000999,0l0,6c0,0.207001 0.021,0.409004 0.061001,0.604004c0.028,0.137001 0.076,0.264999 0.122,0.393997c0.019999,0.056 0.029999,0.115997 0.052999,0.169998c0.049,0.115005 0.115,0.219002 0.177,0.326004c0.035,0.059998 0.061001,0.125999 0.1,0.183998c0.098,0.146004 0.212,0.278 0.333,0.403999c0.011999,0.012001 0.021,0.028 0.032999,0.040001c0.535,0.532997 1.271,0.864998 2.084002,0.875c0.012999,0 0.024,0.002998 0.036999,0.002998c0.827999,0 1.577999,-0.335999 2.121,-0.878998l8.122,-8.121002l40.757004,0c1.656998,0 3,-1.343002 3,-3l0,-43c0,-1.656998 -1.343002,-3 -3,-3zm-44.000004,31c-3.313999,0 -6,-2.686001 -6,-5.999996s2.686001,-6 6,-6s6,2.685997 6,6s-2.686001,5.999996 -6,5.999996zm15,0c-3.313999,0 -6,-2.686001 -6,-5.999996s2.686001,-6 6,-6c3.313999,0 6,2.685997 6,6s-2.686001,5.999996 -6,5.999996zm15,0c-3.313999,0 -6,-2.686001 -6,-5.999996s2.686001,-6 6,-6s6.000004,2.685997 6.000004,6s-2.686005,5.999996 -6.000004,5.999996z"/>
					</g>
				</g>
			</g>
		</g>
	</g>
</svg>
